<?xml version="1.0" standalone="no"?><!DOCTYPE svg PUBLIC "-//W3C//DTD SVG 1.1//EN" "http://www.w3.org/Graphics/SVG/1.1/DTD/svg11.dtd"><svg t="1537366950006" class="icon" style="" viewBox="0 0 1024 1024" version="1.1" xmlns="http://www.w3.org/2000/svg" p-id="26680" xmlns:xlink="http://www.w3.org/1999/xlink" width="128" height="128"><defs><style type="text/css"></style></defs><path d="M494.933333 733.866667a238.648889 238.648889 0 0 1 369.777778-199.111111V177.208889A69.12 69.12 0 0 0 796.444444 108.088889H251.164444A69.12 69.12 0 0 0 182.044444 177.208889v625.777778a69.12 69.12 0 0 0 69.12 69.12H540.444444a237.511111 237.511111 0 0 1-45.511111-138.24z m288.142223-357.262223a31.004444 31.004444 0 0 1-31.004445 31.004445H351.288889a31.004444 31.004444 0 1 1 0-62.008889h400.782222a31.004444 31.004444 0 0 1 31.004445 31.004444zM294.684444 203.662222h343.893334a31.004444 31.004444 0 0 1 0 62.008889H294.684444a31.004444 31.004444 0 1 1 0-62.008889zM263.68 518.257778a31.004444 31.004444 0 0 1 31.004444-31.004445h201.955556a31.004444 31.004444 0 1 1 0 62.008889h-201.955556a31.004444 31.004444 0 0 1-31.004444-31.004444z" p-id="26681" data-spm-anchor-id="a313x.7781069.0.i114" class="" fill="#1d88e5"></path><path d="M733.866667 551.822222a182.044444 182.044444 0 1 0 182.044444 182.044445 182.328889 182.328889 0 0 0-182.044444-182.044445z m85.333333 210.488889h-56.888889v56.888889a28.444444 28.444444 0 0 1-56.888889 0v-56.888889h-56.888889a28.444444 28.444444 0 0 1 0-56.888889h56.888889v-56.888889a28.444444 28.444444 0 0 1 56.888889 0v56.888889h56.888889a28.444444 28.444444 0 1 1 0 56.888889z" p-id="26682" data-spm-anchor-id="a313x.7781069.0.i116" class="selected" fill="#ff3d00"></path></svg>