<?xml version="1.0" standalone="no"?><!DOCTYPE svg PUBLIC "-//W3C//DTD SVG 1.1//EN" "http://www.w3.org/Graphics/SVG/1.1/DTD/svg11.dtd"><svg t="1537366450874" class="icon" style="" viewBox="0 0 1024 1024" version="1.1" xmlns="http://www.w3.org/2000/svg" p-id="24551" xmlns:xlink="http://www.w3.org/1999/xlink" width="128" height="128"><defs><style type="text/css"></style></defs><path d="M903.68 76.8v15.36l-15.36-15.36h15.36zM844.8 130.56l74.24 76.8c10.24 10.24 28.16 10.24 38.4 0 2.56-2.56 5.12-5.12 7.68-12.8v-2.56-5.12l7.68-140.8c0-10.24-2.56-20.48-10.24-25.6-7.68-7.68-15.36-10.24-25.6-10.24h-148.48-2.56c-5.12 0-10.24 2.56-12.8 5.12-10.24 10.24-10.24 28.16 0 38.4l71.68 76.8z" fill="#ff3d00" p-id="24552" data-spm-anchor-id="a313x.7781069.0.i103" class=""></path><path d="M998.4 448c-2.56-2.56-296.96-322.56-276.48-340.48-25.6-25.6-40.96-40.96-74.24-40.96h-2.56c-33.28 0-66.56 12.8-92.16 40.96 0 0-368.64 386.56-371.2 391.68-12.8 17.92-15.36 28.16-15.36 46.08h120.32v407.04c0 56.32 81.92 12.8 69.12 12.8s0-46.08 0-30.72V527.36h368.64v355.84c0 56.32 76.8 99.84 102.4 89.6s53.76-53.76 53.76-110.08L870.4 522.24l84.48-10.24c48.64 2.56 56.32-46.08 43.52-64z" fill="#90caf9" p-id="24553" data-spm-anchor-id="a313x.7781069.0.i102" class="selected"></path><path d="M921.6 486.4c-2.56 12.8-12.8 25.6-28.16 25.6h-92.16v409.6c0 17.92-20.48 33.28-46.08 33.28s-46.08-15.36-46.08-33.28V512H304.64v409.6c0 17.92-20.48 33.28-46.08 33.28s-46.08-15.36-46.08-33.28V512H122.88c-15.36 0-28.16-12.8-28.16-28.16v-5.12-2.56-2.56c25.6-28.16 230.4-243.2 366.08-386.56 15.36-15.36 30.72-17.92 43.52-17.92h2.56c12.8 0 28.16 2.56 43.52 17.92C688.64 230.4 890.88 442.88 919.04 473.6c0 2.56 2.56 2.56 2.56 2.56v10.24z m69.12-5.12v-5.12c0-17.92-5.12-28.16-15.36-46.08-5.12-2.56-373.76-389.12-373.76-389.12-25.6-25.6-58.88-40.96-92.16-40.96h-2.56-2.56c-33.28 0-66.56 12.8-92.16 40.96 0 0-368.64 386.56-371.2 391.68-10.24 15.36-15.36 28.16-15.36 43.52v5.12c0 53.76 43.52 94.72 97.28 94.72h23.04V921.6c0 56.32 51.2 102.4 115.2 102.4s112.64-46.08 112.64-102.4V578.56H640V921.6c0 56.32 51.2 102.4 115.2 102.4s112.64-46.08 112.64-102.4V578.56h23.04c56.32 0 99.84-43.52 99.84-97.28 0 2.56 0 0 0 0z" fill="#1d88e5" p-id="24554" data-spm-anchor-id="a313x.7781069.0.i105" class=""></path></svg>