<?xml version="1.0" standalone="no"?><!DOCTYPE svg PUBLIC "-//W3C//DTD SVG 1.1//EN" "http://www.w3.org/Graphics/SVG/1.1/DTD/svg11.dtd"><svg t="1537365647480" class="icon" style="" viewBox="0 0 1024 1024" version="1.1" xmlns="http://www.w3.org/2000/svg" p-id="21478" xmlns:xlink="http://www.w3.org/1999/xlink" width="128" height="128"><defs><style type="text/css"></style></defs><path d="M640.4 407.2v-58.6h-64.8v23.6h-22.6v-23.6h-82.2v23.6h-22.6v-23.6h-64.8v58.6c0 70.8 57.6 128.4 128.4 128.4s128.6-57.6 128.6-128.4zM348.6 348.6v23.6c0 9 5 16.8 12.4 20.8v-44.4h-12.4z" fill="#FFFFFF" p-id="21479"></path><path d="M313.8 313.8h396.6v12.4H313.8zM640.4 291.2v-23.6c0-51.6-42-93.6-93.6-93.6h-69.8c-51.6 0-93.6 42-93.6 93.6v23.6h257z" fill="#515151" p-id="21480" data-spm-anchor-id="a313x.7781069.0.i93" class=""></path><path d="M663 393.2c7.4-4 12.4-11.8 12.4-20.8v-23.6h-12.4v44.4z" fill="#FFFFFF" p-id="21481"></path><path d="M482.6 628.8l8.8 11.6h41.2l8.8-11.6z" fill="#515151" p-id="21482" data-spm-anchor-id="a313x.7781069.0.i92" class=""></path><path d="M523.2 795.6c3.8 3.2 6.2 8 6.2 13.2 0 9.6-7.8 17.4-17.4 17.4-9.6 0-17.4-7.8-17.4-17.4 0-5.4 2.4-10 6.2-13.2v-14.6l-99.8-46.8V850h222v-115.6l-99.8 46.8v14.4z" fill="#515151" p-id="21483" data-spm-anchor-id="a313x.7781069.0.i88" class=""></path><path d="M401 709.4l111 52 111-52v-11.6h-222z" fill="#dbdbdb" p-id="21484" data-spm-anchor-id="a313x.7781069.0.i89" class="selected"></path><path d="M629.8 628.8l-11.4 27.4-20.8-8.6 37.2-89.2h-59.2v62.4l-17.4 23.2v31.6h87.4v139.6h99.8v-58.6c-0.2-66.6-50.2-121.4-115.6-127.8zM465.8 643.8l-17.4-23.2v-62.4H388l30 90-21.4 7.2-8.6-25.8c-62.6 9.4-109.2 62.8-109.2 127v58.6h99.6v-139.6h87.4v-31.8z" fill="#dbdbdb" p-id="21485" data-spm-anchor-id="a313x.7781069.0.i86" class="selected"></path><path d="M488.4 663h47.4v12.4h-47.4z" fill="#FBC749" p-id="21486"></path><path d="M553.2 552.4c-13 3.8-26.8 5.8-41.2 5.8-14.2 0-28-2-41.2-5.8v53.8h82.2v-53.8z" fill="#FFFFFF" p-id="21487"></path><path d="M638.8 607.2l29.8-71.4h-77.4c40.4-25 68.2-68.4 71.4-118.6 20.2-5 35.2-23.2 35.2-44.8v-23.6h35v-57.4h-69.8v-23.6c0-64-52-116-116-116h-69.8c-64 0-116 52-116 116v23.6h-69.8v57.4h35v23.6c0 21.8 15 40 35.2 44.8 3.2 50 31 93.6 71.4 118.6h-76.2l24 72.2c-71.8 12.6-124.4 74.6-124.4 148.6v81.2h122.2v35h267v-35h122.2v-81.2c0-76-55.6-138.8-129-149.4z m36.6-234.8c0 9-5 16.8-12.4 20.8v-44.4h12.4v23.6zM477 174h69.8c51.6 0 93.6 42 93.6 93.6v23.6H383.6v-23.6c0-51.6 42-93.6 93.4-93.6z m-128.4 198.4v-23.6h12.4v44.4c-7.4-4-12.4-11.8-12.4-20.8z m-34.8-46.2v-12.4h396.6v12.4H313.8z m69.8 81v-58.6h64.8v23.6h22.6v-23.6h82.2v23.6h22.6v-23.6h64.8v58.6c0 70.8-57.6 128.4-128.4 128.4s-128.6-57.6-128.6-128.4z m149 233.2h-41.2l-8.8-11.6h58.6l-8.6 11.6z m3 22.6v12.4h-47.4v-12.4h47.4z m-64.8-56.8v-53.8c13 3.8 26.8 5.8 41.2 5.8 14.2 0 28-2 41.2-5.8v53.8h-82.4z m-92.4 208.8h-99.6v-58.6c0-64.2 46.4-117.6 109.2-127l8.6 25.8L418 648l-30-90h60.4v62.4l17.4 23.2v31.6h-87.4v139.8zM623 850h-222v-115.6l99.8 46.8v14.6c-3.8 3.2-6.2 8-6.2 13.2 0 9.6 7.8 17.4 17.4 17.4 9.6 0 17.4-7.8 17.4-17.4 0-5.4-2.4-10-6.2-13.2v-14.6l99.8-46.8V850z m0-140.6l-111 52-111-52v-11.6h222v11.6z m22.4 105.6v-139.6H558v-31.6l17.4-23.2v-62.4h59.2l-37.2 89.2 20.8 8.6 11.4-27.4c65.2 6.6 115.4 61.2 115.4 127.8v58.6h-99.6z" fill="#17171D" p-id="21488" data-spm-anchor-id="a313x.7781069.0.i91" class=""></path></svg>